<?xml version="1.0" encoding="UTF-8" standalone="no"?>
<!-- Created with Inkscape (http://www.inkscape.org/) -->
<svg xmlns:dc="http://purl.org/dc/elements/1.1/" xmlns:cc="http://creativecommons.org/ns#" xmlns:rdf="http://www.w3.org/1999/02/22-rdf-syntax-ns#" xmlns:svg="http://www.w3.org/2000/svg" xmlns="http://www.w3.org/2000/svg" xmlns:xlink="http://www.w3.org/1999/xlink" xmlns:sodipodi="http://sodipodi.sourceforge.net/DTD/sodipodi-0.dtd" xmlns:inkscape="http://www.inkscape.org/namespaces/inkscape" id="svg1" sodipodi:version="0.32" inkscape:version="0.46" width="85mm" height="100mm" sodipodi:docname="Clare College, Cambridge.svg" sodipodi:docbase="H:\Leo\[ Interessantes ]\College Crests\Shields" version="1.0" inkscape:output_extension="org.inkscape.output.svg.inkscape">
  <metadata id="metadata165">
    <rdf:RDF>
      <cc:Work rdf:about="">
        <dc:format>image/svg+xml</dc:format>
        <dc:type rdf:resource="http://purl.org/dc/dcmitype/StillImage"/>
      </cc:Work>
    </rdf:RDF>
  </metadata>
  <defs id="defs3">
    <inkscape:perspective sodipodi:type="inkscape:persp3d" inkscape:vp_x="0 : 177.16536 : 1" inkscape:vp_y="0 : 1000 : 0" inkscape:vp_z="301.18109 : 177.16536 : 1" inkscape:persp3d-origin="150.59055 : 118.11024 : 1" id="perspective2757"/>
    <linearGradient id="linearGradient1525">
      <stop style="stop-color: rgb(0, 0, 0); stop-opacity: 0;" offset="0.0000000" id="stop1526"/>
      <stop style="stop-color: rgb(255, 255, 255); stop-opacity: 1;" offset="1" id="stop1527"/>
    </linearGradient>
    <linearGradient xlink:href="#linearGradient1525" id="linearGradient1528" x1="241.58377" y1="620.76758" x2="245.96024" y2="621.1825" gradientTransform="scale(1.44708, 0.691048)" gradientUnits="userSpaceOnUse"/>
    <linearGradient inkscape:collect="always" xlink:href="#linearGradient1525" id="linearGradient1464" x1="241.58377" y1="620.76758" x2="245.96024" y2="621.1825" gradientTransform="scale(1.44708, 0.691048)" gradientUnits="userSpaceOnUse"/>
    <linearGradient inkscape:collect="always" xlink:href="#linearGradient1525" id="linearGradient1466" x1="241.58377" y1="620.76758" x2="245.96024" y2="621.1825" gradientTransform="scale(1.44708, 0.691048)" gradientUnits="userSpaceOnUse"/>
    <inkscape:perspective id="perspective2533" inkscape:persp3d-origin="372.04724 : 350.78739 : 1" inkscape:vp_z="744.09448 : 526.18109 : 1" inkscape:vp_y="0 : 1000 : 0" inkscape:vp_x="0 : 526.18109 : 1" sodipodi:type="inkscape:persp3d"/>
    <inkscape:perspective sodipodi:type="inkscape:persp3d" inkscape:vp_x="0 : 526.18109 : 1" inkscape:vp_y="0 : 1000 : 0" inkscape:vp_z="744.09448 : 526.18109 : 1" inkscape:persp3d-origin="372.04724 : 350.78739 : 1" id="perspective2879"/>
    <linearGradient gradientUnits="userSpaceOnUse" gradientTransform="scale(1.44708, 0.691048)" y2="621.1825" x2="245.96024" y1="620.76758" x1="241.58377" id="linearGradient4083" xlink:href="#linearGradient1525" inkscape:collect="always"/>
    <linearGradient gradientUnits="userSpaceOnUse" gradientTransform="scale(1.44708, 0.691048)" y2="621.1825" x2="245.96024" y1="620.76758" x1="241.58377" id="linearGradient4081" xlink:href="#linearGradient1525" inkscape:collect="always"/>
    <linearGradient gradientUnits="userSpaceOnUse" gradientTransform="scale(1.44708, 0.691048)" y2="621.1825" x2="245.96024" y1="620.76758" x1="241.58377" id="linearGradient4079" xlink:href="#linearGradient1525"/>
    <linearGradient id="linearGradient4073">
      <stop id="stop4075" offset="0.0000000" style="stop-color: rgb(0, 0, 0); stop-opacity: 0;"/>
      <stop id="stop4077" offset="1" style="stop-color: rgb(255, 255, 255); stop-opacity: 1;"/>
    </linearGradient>
    <inkscape:perspective id="perspective4071" inkscape:persp3d-origin="150.59055 : 118.11024 : 1" inkscape:vp_z="301.18109 : 177.16536 : 1" inkscape:vp_y="0 : 1000 : 0" inkscape:vp_x="0 : 177.16536 : 1" sodipodi:type="inkscape:persp3d"/>
    <inkscape:perspective id="perspective2478" inkscape:persp3d-origin="372.04724 : 350.78739 : 1" inkscape:vp_z="744.09448 : 526.18109 : 1" inkscape:vp_y="0 : 1000 : 0" inkscape:vp_x="0 : 526.18109 : 1" sodipodi:type="inkscape:persp3d"/>
  </defs>
  <sodipodi:namedview id="base" pagecolor="#ffffff" bordercolor="#666666" borderopacity="1.0" inkscape:pageopacity="0.0" inkscape:pageshadow="2" inkscape:zoom="2" inkscape:cx="234.76355" inkscape:cy="188.99795" inkscape:window-width="1280" inkscape:window-height="750" inkscape:window-x="-8" inkscape:window-y="-8" inkscape:document-units="mm" showgrid="true" gridtolerance="0.4mm" inkscape:current-layer="svg1">
    <inkscape:grid id="GridFromPre046Settings" type="xygrid" originx="0px" originy="0mm" spacingx="10mm" spacingy="10mm" color="#0000ff" empcolor="#0000ff" opacity="0.2" empopacity="0.4" empspacing="5"/>
  </sodipodi:namedview>
  <path style="fill:#ffffff;fill-opacity:1;fill-rule:evenodd;stroke:#000000;stroke-width:1.43746328;stroke-dasharray:none;stroke-opacity:1" d="M 149.23209,352.77844 C 315.42616,275.30134 297.59903,143.18552 297.50556,4.9640816 C 297.66756,4.5640574 297.83722,4.1672032 297.99918,3.7672165 C 297.83467,3.7672165 297.67011,3.7672165 297.50556,3.7672165 C 200.44191,3.7672165 103.37064,3.7672165 6.3070253,3.7672165 C 6.1424353,3.7672165 5.9778453,3.7672165 5.813349,3.7672165 C 5.9752756,4.1672219 6.145005,4.5640387 6.3070253,4.9640816 C 6.2135232,143.18552 -7.4593983,275.30134 149.23209,352.77844 z" id="path1534" sodipodi:nodetypes="cccccccc"/>
  <path id="path4353" d="" style="fill:#ffff00;fill-opacity:1;stroke:#070404;stroke-width:0.25503862;stroke-linecap:round;stroke-linejoin:miter;stroke-miterlimit:4;stroke-dasharray:none;stroke-opacity:1"/>
  <path id="path2632" d="" style="fill:#ffff00;fill-opacity:1;stroke:#070404;stroke-width:0.25503862;stroke-linecap:round;stroke-linejoin:miter;stroke-miterlimit:4;stroke-dasharray:none;stroke-opacity:1"/>
  <path id="path2634" d="" style="fill:#ffff00;fill-opacity:1;stroke:#070404;stroke-width:0.25503862;stroke-linecap:round;stroke-linejoin:miter;stroke-miterlimit:4;stroke-dasharray:none;stroke-opacity:1"/>
  <path id="path2770" d="" style="fill:#ffff00;fill-opacity:1;stroke:#070404;stroke-width:0.12751929;stroke-linecap:round;stroke-linejoin:miter;stroke-miterlimit:4;stroke-dasharray:none;stroke-opacity:1"/>
  <path id="path2798" d="" style="fill:#ffff00;fill-opacity:1;stroke:#070404;stroke-width:0.12751929;stroke-linecap:round;stroke-linejoin:miter;stroke-miterlimit:4;stroke-dasharray:none;stroke-opacity:1"/>
  <path id="path2806" d="" style="fill:#ffff00;fill-opacity:1;stroke:#070404;stroke-width:0.01127122;stroke-linecap:round;stroke-linejoin:miter;stroke-miterlimit:4;stroke-dasharray:none;stroke-opacity:1"/>
  <path id="path2824" d="" style="fill:#ffff00;fill-opacity:1;stroke:#070404;stroke-width:0.01127122;stroke-linecap:round;stroke-linejoin:miter;stroke-miterlimit:4;stroke-dasharray:none;stroke-opacity:1"/>
  <path id="path2850" d="" style="fill:#ff0000;fill-opacity:1;stroke:#070404;stroke-width:0.25503862;stroke-linecap:round;stroke-linejoin:miter;stroke-miterlimit:4;stroke-dasharray:none;stroke-opacity:1"/>
  <path id="path2852" d="" style="fill:#ff0000;fill-opacity:1;stroke:#070404;stroke-width:0.25503862;stroke-linecap:round;stroke-linejoin:miter;stroke-miterlimit:4;stroke-dasharray:none;stroke-opacity:1"/>
  <path id="path2864" d="" style="fill:#ff0000;fill-opacity:1;stroke:#070404;stroke-width:0.12751929;stroke-linecap:round;stroke-linejoin:miter;stroke-miterlimit:4;stroke-dasharray:none;stroke-opacity:1"/>
  <path id="path2868" d="" style="fill:#ff0000;fill-opacity:1;stroke:#070404;stroke-width:0.12751929;stroke-linecap:round;stroke-linejoin:miter;stroke-miterlimit:4;stroke-dasharray:none;stroke-opacity:1"/>
  <path id="path2898" d="" style="fill:#ffff00;fill-opacity:1;stroke:#070404;stroke-width:0.12751929;stroke-linecap:round;stroke-linejoin:miter;stroke-miterlimit:4;stroke-dasharray:none;stroke-opacity:1"/>
  <path id="path5804" d="" style="fill:#ff0000;fill-opacity:1;stroke:#070404;stroke-width:0.175;stroke-linecap:round;stroke-linejoin:miter;stroke-miterlimit:4;stroke-dasharray:none;stroke-opacity:1"/>
  <path id="path5840" d="" style="fill:#ff0000;fill-opacity:1;stroke:#070404;stroke-width:0.06187184;stroke-linecap:round;stroke-linejoin:miter;stroke-miterlimit:4;stroke-dasharray:none;stroke-opacity:1"/>
  <path id="path5862" d="" style="fill:#ff0000;fill-opacity:1;stroke:#070404;stroke-width:0.06187184;stroke-linecap:round;stroke-linejoin:miter;stroke-miterlimit:4;stroke-dasharray:none;stroke-opacity:1"/>
  <path id="path5874" d="" style="fill:#ff0000;fill-opacity:1;stroke:#070404;stroke-width:0.06187184;stroke-linecap:round;stroke-linejoin:miter;stroke-miterlimit:4;stroke-dasharray:none;stroke-opacity:1"/>
  <path id="path5876" d="" style="fill:#ff0000;fill-opacity:1;stroke:#070404;stroke-width:0.06187184;stroke-linecap:round;stroke-linejoin:miter;stroke-miterlimit:4;stroke-dasharray:none;stroke-opacity:1"/>
  <path id="path5880" d="" style="fill:#ff0000;fill-opacity:1;stroke:#070404;stroke-width:0.06187184;stroke-linecap:round;stroke-linejoin:miter;stroke-miterlimit:4;stroke-dasharray:none;stroke-opacity:1"/>
  <path style="fill:#ffffff;fill-opacity:1;fill-rule:evenodd;stroke:#000000;stroke-width:1.11090493;stroke-dasharray:none;stroke-opacity:1" d="M 152.52912,313.99962 C 280.96776,254.1235 267.19053,152.02132 267.1183,45.200575 C 267.2435,44.891427 267.37461,44.58473 267.49979,44.27561 C 267.37265,44.27561 267.24547,44.27561 267.1183,44.27561 C 192.10525,44.27561 117.08633,44.27561 42.07329,44.27561 C 41.94608,44.27561 41.81889,44.27561 41.69176,44.27561 C 41.81691,44.584744 41.94807,44.891413 42.07329,45.200575 C 42.00104,152.02132 31.43428,254.1235 152.52912,313.99962 z" id="path2504" sodipodi:nodetypes="cccccccc"/>
  <path style="fill:none;fill-rule:evenodd;stroke:#000000;stroke-width:0.9873755px;stroke-linecap:butt;stroke-linejoin:miter;stroke-opacity:1" d="M 152,42.318174 L 152,313.34326" id="path2506"/>
  <path style="fill:none;fill-rule:evenodd;stroke:#000000;stroke-width:1px;stroke-linecap:butt;stroke-linejoin:miter;stroke-opacity:1" d="M 152,112.33072 L 191,112.33072 L 190,44.330719 L 220,44.330719 L 220,112.33072 L 267.5,111.83072" id="path2508" sodipodi:nodetypes="cccccc"/>
  <path style="fill:none;fill-rule:evenodd;stroke:#000000;stroke-width:1.14045596px;stroke-linecap:butt;stroke-linejoin:miter;stroke-opacity:1" d="M 265.92977,146.40095 L 221.07023,146.40095 L 221.07023,266.26049" id="path2510"/>
  <path style="fill:none;fill-rule:evenodd;stroke:#000000;stroke-width:1.0221138px;stroke-linecap:butt;stroke-linejoin:miter;stroke-opacity:1" d="M 188.98894,293.81966 L 188.98894,146.34178 L 152.01106,146.34178" id="path2512"/>
  <path style="fill:none;fill-rule:evenodd;stroke:#000000;stroke-width:1px;stroke-linecap:butt;stroke-linejoin:miter;stroke-opacity:1" d="M 152,106.29922 L 98,49.330719 L 42,109.33072" id="path2514"/>
  <path style="fill:none;fill-rule:evenodd;stroke:#000000;stroke-width:1px;stroke-linecap:butt;stroke-linejoin:miter;stroke-opacity:1" d="M 152,156.33072 L 97,97.330719 L 44,153.33072" id="path2516"/>
  <path style="fill:none;fill-rule:evenodd;stroke:#000000;stroke-width:1px;stroke-linecap:butt;stroke-linejoin:miter;stroke-opacity:1" d="M 152,166.33072 L 98,106.29922 L 45,163.33072" id="path2518"/>
  <path style="fill:none;fill-rule:evenodd;stroke:#000000;stroke-width:0.98743385px;stroke-linecap:butt;stroke-linejoin:miter;stroke-opacity:1" d="M 152.00628,211.10472 L 94.99912,153.32444 L 51.993717,199.14489" id="path2520"/>
  <path style="fill:none;fill-rule:evenodd;stroke:#000000;stroke-width:1px;stroke-linecap:butt;stroke-linejoin:miter;stroke-opacity:1" d="M 152,226.33072 L 98,167.33072 L 57,210.33072" id="path2522"/>
  <path style="fill:none;fill-rule:evenodd;stroke:#000000;stroke-width:1.02923191px;stroke-linecap:butt;stroke-linejoin:miter;stroke-opacity:1" d="M 152.98538,275.8161 L 94.964687,212.61306 L 69.380758,240.43288" id="path2524"/>
  <g id="g2534" transform="translate(3.5)">
    <path id="path2530" d="M 277,99.830719 C 275.79752,102.23568 275,103.54698 275,107.83072 C 275,109.45439 272.64115,111.68957 271.5,112.83072 C 270.50228,113.82844 270,117.56 270,119.33072 C 270,122.5503 269.9807,123.81142 271.5,125.33072 C 273.50357,127.33429 274.76895,127.83072 277.5,127.83072 C 280.44088,127.83072 281.46526,128.8784 283.46457,126.83072 C 285.46734,124.77949 286.37242,124.08587 287.5,121.83072 C 288.62053,119.58966 286.97357,116.30429 286,115.33072 C 284.16515,113.49587 283.32193,111.03496 282.5,109.33072 C 281.43545,107.12341 281.00043,104.83244 280.5,102.83072 C 279.91845,100.5045 279.77078,99.830719 277,99.830719 z" style="fill:none;fill-rule:evenodd;stroke:#000000;stroke-width:1px;stroke-linecap:butt;stroke-linejoin:miter;stroke-opacity:1"/>
    <path id="path2532" d="M 283.46457,116.33072 C 282.84904,113.86861 280.63498,120.56076 279.5,122.83072 C 278.52444,124.78183 276.87523,126.83072 280,126.83072 C 282.27533,126.83072 282.63944,124.04159 283.46457,122.33072 C 284.00517,121.20979 283.46457,117.45846 283.46457,116.33072 z" style="fill:none;fill-rule:evenodd;stroke:#000000;stroke-width:1px;stroke-linecap:butt;stroke-linejoin:miter;stroke-opacity:1"/>
  </g>
  <g id="g2538" transform="translate(-3.07087e-06, -88.634)">
    <path id="path2540" d="M 277,99.830719 C 275.79752,102.23568 275,103.54698 275,107.83072 C 275,109.45439 272.64115,111.68957 271.5,112.83072 C 270.50228,113.82844 270,117.56 270,119.33072 C 270,122.5503 269.9807,123.81142 271.5,125.33072 C 273.50357,127.33429 274.76895,127.83072 277.5,127.83072 C 280.44088,127.83072 281.46526,128.8784 283.46457,126.83072 C 285.46734,124.77949 286.37242,124.08587 287.5,121.83072 C 288.62053,119.58966 286.97357,116.30429 286,115.33072 C 284.16515,113.49587 283.32193,111.03496 282.5,109.33072 C 281.43545,107.12341 281.00043,104.83244 280.5,102.83072 C 279.91845,100.5045 279.77078,99.830719 277,99.830719 z" style="fill:none;fill-rule:evenodd;stroke:#000000;stroke-width:1px;stroke-linecap:butt;stroke-linejoin:miter;stroke-opacity:1"/>
    <path id="path2542" d="M 283.46457,116.33072 C 282.84904,113.86861 280.63498,120.56076 279.5,122.83072 C 278.52444,124.78183 276.87523,126.83072 280,126.83072 C 282.27533,126.83072 282.63944,124.04159 283.46457,122.33072 C 284.00517,121.20979 283.46457,117.45846 283.46457,116.33072 z" style="fill:none;fill-rule:evenodd;stroke:#000000;stroke-width:1px;stroke-linecap:butt;stroke-linejoin:miter;stroke-opacity:1"/>
  </g>
  <g id="g2544" transform="translate(-64.4016, -90.134)">
    <path id="path2546" d="M 277,99.830719 C 275.79752,102.23568 275,103.54698 275,107.83072 C 275,109.45439 272.64115,111.68957 271.5,112.83072 C 270.50228,113.82844 270,117.56 270,119.33072 C 270,122.5503 269.9807,123.81142 271.5,125.33072 C 273.50357,127.33429 274.76895,127.83072 277.5,127.83072 C 280.44088,127.83072 281.46526,128.8784 283.46457,126.83072 C 285.46734,124.77949 286.37242,124.08587 287.5,121.83072 C 288.62053,119.58966 286.97357,116.30429 286,115.33072 C 284.16515,113.49587 283.32193,111.03496 282.5,109.33072 C 281.43545,107.12341 281.00043,104.83244 280.5,102.83072 C 279.91845,100.5045 279.77078,99.830719 277,99.830719 z" style="fill:none;fill-rule:evenodd;stroke:#000000;stroke-width:1px;stroke-linecap:butt;stroke-linejoin:miter;stroke-opacity:1"/>
    <path id="path2548" d="M 283.46457,116.33072 C 282.84904,113.86861 280.63498,120.56076 279.5,122.83072 C 278.52444,124.78183 276.87523,126.83072 280,126.83072 C 282.27533,126.83072 282.63944,124.04159 283.46457,122.33072 C 284.00517,121.20979 283.46457,117.45846 283.46457,116.33072 z" style="fill:none;fill-rule:evenodd;stroke:#000000;stroke-width:1px;stroke-linecap:butt;stroke-linejoin:miter;stroke-opacity:1"/>
  </g>
  <g id="g2550" transform="translate(-128.938, -90.134)">
    <path id="path2552" d="M 277,99.830719 C 275.79752,102.23568 275,103.54698 275,107.83072 C 275,109.45439 272.64115,111.68957 271.5,112.83072 C 270.50228,113.82844 270,117.56 270,119.33072 C 270,122.5503 269.9807,123.81142 271.5,125.33072 C 273.50357,127.33429 274.76895,127.83072 277.5,127.83072 C 280.44088,127.83072 281.46526,128.8784 283.46457,126.83072 C 285.46734,124.77949 286.37242,124.08587 287.5,121.83072 C 288.62053,119.58966 286.97357,116.30429 286,115.33072 C 284.16515,113.49587 283.32193,111.03496 282.5,109.33072 C 281.43545,107.12341 281.00043,104.83244 280.5,102.83072 C 279.91845,100.5045 279.77078,99.830719 277,99.830719 z" style="fill:none;fill-rule:evenodd;stroke:#000000;stroke-width:1px;stroke-linecap:butt;stroke-linejoin:miter;stroke-opacity:1"/>
    <path id="path2554" d="M 283.46457,116.33072 C 282.84904,113.86861 280.63498,120.56076 279.5,122.83072 C 278.52444,124.78183 276.87523,126.83072 280,126.83072 C 282.27533,126.83072 282.63944,124.04159 283.46457,122.33072 C 284.00517,121.20979 283.46457,117.45846 283.46457,116.33072 z" style="fill:none;fill-rule:evenodd;stroke:#000000;stroke-width:1px;stroke-linecap:butt;stroke-linejoin:miter;stroke-opacity:1"/>
  </g>
  <g id="g2556" transform="translate(-191.438, -89.134)">
    <path id="path2558" d="M 277,99.830719 C 275.79752,102.23568 275,103.54698 275,107.83072 C 275,109.45439 272.64115,111.68957 271.5,112.83072 C 270.50228,113.82844 270,117.56 270,119.33072 C 270,122.5503 269.9807,123.81142 271.5,125.33072 C 273.50357,127.33429 274.76895,127.83072 277.5,127.83072 C 280.44088,127.83072 281.46526,128.8784 283.46457,126.83072 C 285.46734,124.77949 286.37242,124.08587 287.5,121.83072 C 288.62053,119.58966 286.97357,116.30429 286,115.33072 C 284.16515,113.49587 283.32193,111.03496 282.5,109.33072 C 281.43545,107.12341 281.00043,104.83244 280.5,102.83072 C 279.91845,100.5045 279.77078,99.830719 277,99.830719 z" style="fill:none;fill-rule:evenodd;stroke:#000000;stroke-width:1px;stroke-linecap:butt;stroke-linejoin:miter;stroke-opacity:1"/>
    <path id="path2560" d="M 283.46457,116.33072 C 282.84904,113.86861 280.63498,120.56076 279.5,122.83072 C 278.52444,124.78183 276.87523,126.83072 280,126.83072 C 282.27533,126.83072 282.63944,124.04159 283.46457,122.33072 C 284.00517,121.20979 283.46457,117.45846 283.46457,116.33072 z" style="fill:none;fill-rule:evenodd;stroke:#000000;stroke-width:1px;stroke-linecap:butt;stroke-linejoin:miter;stroke-opacity:1"/>
  </g>
  <g id="g2562" transform="translate(-253.438, -90.134)">
    <path id="path2564" d="M 277,99.830719 C 275.79752,102.23568 275,103.54698 275,107.83072 C 275,109.45439 272.64115,111.68957 271.5,112.83072 C 270.50228,113.82844 270,117.56 270,119.33072 C 270,122.5503 269.9807,123.81142 271.5,125.33072 C 273.50357,127.33429 274.76895,127.83072 277.5,127.83072 C 280.44088,127.83072 281.46526,128.8784 283.46457,126.83072 C 285.46734,124.77949 286.37242,124.08587 287.5,121.83072 C 288.62053,119.58966 286.97357,116.30429 286,115.33072 C 284.16515,113.49587 283.32193,111.03496 282.5,109.33072 C 281.43545,107.12341 281.00043,104.83244 280.5,102.83072 C 279.91845,100.5045 279.77078,99.830719 277,99.830719 z" style="fill:none;fill-rule:evenodd;stroke:#000000;stroke-width:1px;stroke-linecap:butt;stroke-linejoin:miter;stroke-opacity:1"/>
    <path id="path2566" d="M 283.46457,116.33072 C 282.84904,113.86861 280.63498,120.56076 279.5,122.83072 C 278.52444,124.78183 276.87523,126.83072 280,126.83072 C 282.27533,126.83072 282.63944,124.04159 283.46457,122.33072 C 284.00517,121.20979 283.46457,117.45846 283.46457,116.33072 z" style="fill:none;fill-rule:evenodd;stroke:#000000;stroke-width:1px;stroke-linecap:butt;stroke-linejoin:miter;stroke-opacity:1"/>
  </g>
  <g id="g2568" transform="translate(-252.938, 0.866008)">
    <path id="path2570" d="M 277,99.830719 C 275.79752,102.23568 275,103.54698 275,107.83072 C 275,109.45439 272.64115,111.68957 271.5,112.83072 C 270.50228,113.82844 270,117.56 270,119.33072 C 270,122.5503 269.9807,123.81142 271.5,125.33072 C 273.50357,127.33429 274.76895,127.83072 277.5,127.83072 C 280.44088,127.83072 281.46526,128.8784 283.46457,126.83072 C 285.46734,124.77949 286.37242,124.08587 287.5,121.83072 C 288.62053,119.58966 286.97357,116.30429 286,115.33072 C 284.16515,113.49587 283.32193,111.03496 282.5,109.33072 C 281.43545,107.12341 281.00043,104.83244 280.5,102.83072 C 279.91845,100.5045 279.77078,99.830719 277,99.830719 z" style="fill:none;fill-rule:evenodd;stroke:#000000;stroke-width:1px;stroke-linecap:butt;stroke-linejoin:miter;stroke-opacity:1"/>
    <path id="path2572" d="M 283.46457,116.33072 C 282.84904,113.86861 280.63498,120.56076 279.5,122.83072 C 278.52444,124.78183 276.87523,126.83072 280,126.83072 C 282.27533,126.83072 282.63944,124.04159 283.46457,122.33072 C 284.00517,121.20979 283.46457,117.45846 283.46457,116.33072 z" style="fill:none;fill-rule:evenodd;stroke:#000000;stroke-width:1px;stroke-linecap:butt;stroke-linejoin:miter;stroke-opacity:1"/>
  </g>
  <g id="g2574" transform="matrix(0.939693, -0.34202, 0.34202, 0.939693, -261.916, 203.133)">
    <path id="path2576" d="M 277,99.830719 C 275.79752,102.23568 275,103.54698 275,107.83072 C 275,109.45439 272.64115,111.68957 271.5,112.83072 C 270.50228,113.82844 270,117.56 270,119.33072 C 270,122.5503 269.9807,123.81142 271.5,125.33072 C 273.50357,127.33429 274.76895,127.83072 277.5,127.83072 C 280.44088,127.83072 281.46526,128.8784 283.46457,126.83072 C 285.46734,124.77949 286.37242,124.08587 287.5,121.83072 C 288.62053,119.58966 286.97357,116.30429 286,115.33072 C 284.16515,113.49587 283.32193,111.03496 282.5,109.33072 C 281.43545,107.12341 281.00043,104.83244 280.5,102.83072 C 279.91845,100.5045 279.77078,99.830719 277,99.830719 z" style="fill:none;fill-rule:evenodd;stroke:#000000;stroke-width:1px;stroke-linecap:butt;stroke-linejoin:miter;stroke-opacity:1"/>
    <path id="path2578" d="M 283.46457,116.33072 C 282.84904,113.86861 280.63498,120.56076 279.5,122.83072 C 278.52444,124.78183 276.87523,126.83072 280,126.83072 C 282.27533,126.83072 282.63944,124.04159 283.46457,122.33072 C 284.00517,121.20979 283.46457,117.45846 283.46457,116.33072 z" style="fill:none;fill-rule:evenodd;stroke:#000000;stroke-width:1px;stroke-linecap:butt;stroke-linejoin:miter;stroke-opacity:1"/>
  </g>
  <g id="g2580" transform="matrix(0.866026, 0.5, -0.5, 0.866026, 84.4112, -25.5808)">
    <path id="path2582" d="M 277,99.830719 C 275.79752,102.23568 275,103.54698 275,107.83072 C 275,109.45439 272.64115,111.68957 271.5,112.83072 C 270.50228,113.82844 270,117.56 270,119.33072 C 270,122.5503 269.9807,123.81142 271.5,125.33072 C 273.50357,127.33429 274.76895,127.83072 277.5,127.83072 C 280.44088,127.83072 281.46526,128.8784 283.46457,126.83072 C 285.46734,124.77949 286.37242,124.08587 287.5,121.83072 C 288.62053,119.58966 286.97357,116.30429 286,115.33072 C 284.16515,113.49587 283.32193,111.03496 282.5,109.33072 C 281.43545,107.12341 281.00043,104.83244 280.5,102.83072 C 279.91845,100.5045 279.77078,99.830719 277,99.830719 z" style="fill:none;fill-rule:evenodd;stroke:#000000;stroke-width:1px;stroke-linecap:butt;stroke-linejoin:miter;stroke-opacity:1"/>
    <path id="path2584" d="M 283.46457,116.33072 C 282.84904,113.86861 280.63498,120.56076 279.5,122.83072 C 278.52444,124.78183 276.87523,126.83072 280,126.83072 C 282.27533,126.83072 282.63944,124.04159 283.46457,122.33072 C 284.00517,121.20979 283.46457,117.45846 283.46457,116.33072 z" style="fill:none;fill-rule:evenodd;stroke:#000000;stroke-width:1px;stroke-linecap:butt;stroke-linejoin:miter;stroke-opacity:1"/>
  </g>
  <g id="g2586" transform="matrix(0.819152, 0.573576, -0.573576, 0.819152, 55.8646, 30.4938)">
    <path id="path2588" d="M 277,99.830719 C 275.79752,102.23568 275,103.54698 275,107.83072 C 275,109.45439 272.64115,111.68957 271.5,112.83072 C 270.50228,113.82844 270,117.56 270,119.33072 C 270,122.5503 269.9807,123.81142 271.5,125.33072 C 273.50357,127.33429 274.76895,127.83072 277.5,127.83072 C 280.44088,127.83072 281.46526,128.8784 283.46457,126.83072 C 285.46734,124.77949 286.37242,124.08587 287.5,121.83072 C 288.62053,119.58966 286.97357,116.30429 286,115.33072 C 284.16515,113.49587 283.32193,111.03496 282.5,109.33072 C 281.43545,107.12341 281.00043,104.83244 280.5,102.83072 C 279.91845,100.5045 279.77078,99.830719 277,99.830719 z" style="fill:none;fill-rule:evenodd;stroke:#000000;stroke-width:1px;stroke-linecap:butt;stroke-linejoin:miter;stroke-opacity:1"/>
    <path id="path2590" d="M 283.46457,116.33072 C 282.84904,113.86861 280.63498,120.56076 279.5,122.83072 C 278.52444,124.78183 276.87523,126.83072 280,126.83072 C 282.27533,126.83072 282.63944,124.04159 283.46457,122.33072 C 284.00517,121.20979 283.46457,117.45846 283.46457,116.33072 z" style="fill:none;fill-rule:evenodd;stroke:#000000;stroke-width:1px;stroke-linecap:butt;stroke-linejoin:miter;stroke-opacity:1"/>
  </g>
  <g id="g2592" transform="matrix(0.906308, -0.422618, 0.422618, 0.906308, -212.595, 297.83)">
    <path id="path2594" d="M 277,99.830719 C 275.79752,102.23568 275,103.54698 275,107.83072 C 275,109.45439 272.64115,111.68957 271.5,112.83072 C 270.50228,113.82844 270,117.56 270,119.33072 C 270,122.5503 269.9807,123.81142 271.5,125.33072 C 273.50357,127.33429 274.76895,127.83072 277.5,127.83072 C 280.44088,127.83072 281.46526,128.8784 283.46457,126.83072 C 285.46734,124.77949 286.37242,124.08587 287.5,121.83072 C 288.62053,119.58966 286.97357,116.30429 286,115.33072 C 284.16515,113.49587 283.32193,111.03496 282.5,109.33072 C 281.43545,107.12341 281.00043,104.83244 280.5,102.83072 C 279.91845,100.5045 279.77078,99.830719 277,99.830719 z" style="fill:none;fill-rule:evenodd;stroke:#000000;stroke-width:1px;stroke-linecap:butt;stroke-linejoin:miter;stroke-opacity:1"/>
    <path id="path2596" d="M 283.46457,116.33072 C 282.84904,113.86861 280.63498,120.56076 279.5,122.83072 C 278.52444,124.78183 276.87523,126.83072 280,126.83072 C 282.27533,126.83072 282.63944,124.04159 283.46457,122.33072 C 284.00517,121.20979 283.46457,117.45846 283.46457,116.33072 z" style="fill:none;fill-rule:evenodd;stroke:#000000;stroke-width:1px;stroke-linecap:butt;stroke-linejoin:miter;stroke-opacity:1"/>
  </g>
  <g id="g2598" transform="translate(-127.438, 217.366)">
    <path id="path2600" d="M 277,99.830719 C 275.79752,102.23568 275,103.54698 275,107.83072 C 275,109.45439 272.64115,111.68957 271.5,112.83072 C 270.50228,113.82844 270,117.56 270,119.33072 C 270,122.5503 269.9807,123.81142 271.5,125.33072 C 273.50357,127.33429 274.76895,127.83072 277.5,127.83072 C 280.44088,127.83072 281.46526,128.8784 283.46457,126.83072 C 285.46734,124.77949 286.37242,124.08587 287.5,121.83072 C 288.62053,119.58966 286.97357,116.30429 286,115.33072 C 284.16515,113.49587 283.32193,111.03496 282.5,109.33072 C 281.43545,107.12341 281.00043,104.83244 280.5,102.83072 C 279.91845,100.5045 279.77078,99.830719 277,99.830719 z" style="fill:none;fill-rule:evenodd;stroke:#000000;stroke-width:1px;stroke-linecap:butt;stroke-linejoin:miter;stroke-opacity:1"/>
    <path id="path2602" d="M 283.46457,116.33072 C 282.84904,113.86861 280.63498,120.56076 279.5,122.83072 C 278.52444,124.78183 276.87523,126.83072 280,126.83072 C 282.27533,126.83072 282.63944,124.04159 283.46457,122.33072 C 284.00517,121.20979 283.46457,117.45846 283.46457,116.33072 z" style="fill:none;fill-rule:evenodd;stroke:#000000;stroke-width:1px;stroke-linecap:butt;stroke-linejoin:miter;stroke-opacity:1"/>
  </g>
  <path style="opacity:1;fill:#ff0000;fill-opacity:1;stroke:#070404;stroke-width:0.34999999;stroke-linecap:round;stroke-linejoin:miter;stroke-miterlimit:4;stroke-dasharray:none;stroke-opacity:1" d="M 124.16333,125.35639 C 109.49559,109.61264 97.339257,96.666912 97.149272,96.588107 C 96.959292,96.509297 85.102232,108.7993 70.800257,123.89921 L 44.796667,151.35358 L 44.481542,147.54249 C 44.038332,142.18224 43.273687,127.73273 42.917222,117.98139 L 42.615632,109.73139 L 69.681767,80.731392 C 84.568122,64.781392 97.028887,51.439442 97.372347,51.082612 C 97.877987,50.557292 103.05543,55.766837 124.58018,78.459167 L 151.16355,106.48449 L 151.16355,130.23295 C 151.16355,143.29459 151.08895,153.98139 150.99777,153.98139 C 150.90659,153.98139 138.8311,141.10014 124.16335,125.35639 L 124.16333,125.35639 z" id="path2604"/>
  <path style="opacity:1;fill:#ff0000;fill-opacity:1;stroke:#070404;stroke-width:0.34999999;stroke-linecap:round;stroke-linejoin:miter;stroke-miterlimit:4;stroke-dasharray:none;stroke-opacity:1" d="M 123.1991,180.85595 C 107.95616,165.38744 95.327717,152.66566 95.135892,152.58532 C 94.944057,152.50498 85.386522,162.46123 73.896907,174.71032 C 62.407282,186.95941 52.938162,196.98139 52.854392,196.98139 C 52.131342,196.98139 47.789262,175.76587 46.407427,165.48139 L 46.105107,163.23139 L 71.174257,136.23139 C 84.962282,121.38139 96.637627,108.82544 97.119472,108.32928 C 97.959012,107.46478 99.104012,108.65969 124.57955,136.98655 L 151.16355,166.54594 L 151.16355,187.76366 C 151.16355,199.43341 151.1073,208.98119 151.03855,208.98095 C 150.9698,208.98069 138.44205,196.32446 123.19911,180.85595 L 123.1991,180.85595 z" id="path2608"/>
  <path style="opacity:1;fill:#ff0000;fill-opacity:1;stroke:#070404;stroke-width:0.34999999;stroke-linecap:round;stroke-linejoin:miter;stroke-miterlimit:4;stroke-dasharray:none;stroke-opacity:1" d="M 122.94095,241.95875 L 94.968327,211.44935 L 93.897007,212.59037 C 93.307767,213.21793 87.710832,219.30014 81.459367,226.10639 C 75.207912,232.91264 69.868267,238.48139 69.593522,238.48139 C 68.917617,238.48139 61.225977,222.44115 58.944157,216.27301 L 57.109867,211.31464 L 59.803622,208.52302 C 61.285212,206.98762 69.543862,198.30639 78.156192,189.23139 C 86.768527,180.15639 94.753632,171.76163 95.900872,170.57637 L 97.986757,168.42135 L 124.57514,197.47865 L 151.16355,226.53593 L 151.16355,249.50868 C 151.16355,262.14367 151.1073,272.47841 151.03855,272.47477 C 150.9698,272.47113 138.32587,258.73892 122.94094,241.95875 L 122.94095,241.95875 z" id="path2610"/>
  <path style="opacity:1;fill:#ff0000;fill-opacity:1;stroke:#070404;stroke-width:0.34999999;stroke-linecap:round;stroke-linejoin:miter;stroke-miterlimit:4;stroke-dasharray:none;stroke-opacity:1" d="M 189.66355,218.48139 L 189.66355,145.48139 L 171.16355,145.48139 L 152.66355,145.48139 L 152.66355,129.23139 L 152.66355,112.98139 L 172.224,112.98139 L 191.78446,112.98139 L 191.47001,90.356392 C 191.29707,77.912642 191.01851,62.612642 190.85098,56.356392 L 190.54639,44.981392 L 204.85495,44.981392 L 219.16355,44.981392 L 219.16355,79.062982 L 219.16355,113.14457 L 242.99298,112.8113 L 266.8224,112.47804 L 266.4982,122.60471 C 266.31985,128.17439 266.02435,135.60014 265.8416,139.10639 L 265.50925,145.48139 L 242.8364,145.48139 L 220.16355,145.48139 L 220.16355,205.61491 L 220.16355,265.74845 L 214.78855,271.02546 C 211.8323,273.92781 207.74562,277.74897 205.70705,279.51693 C 201.44421,283.21391 190.62542,291.48139 190.05046,291.48139 C 189.83767,291.48139 189.66355,258.63139 189.66355,218.48139 z" id="path2612"/>
  <path style="opacity:1;fill:#ffff00;fill-opacity:1;stroke:#070404;stroke-width:0.34999999;stroke-linecap:round;stroke-linejoin:miter;stroke-miterlimit:4;stroke-dasharray:none;stroke-opacity:1" d="M 42.663547,76.242577 L 42.663547,44.981392 L 96.913547,44.981392 L 151.16355,44.981392 L 151.16355,74.600442 L 151.16355,104.21949 L 148.72022,101.72544 C 147.37641,100.35371 135.52425,87.868892 122.38209,73.981392 C 109.23994,60.093892 98.333427,48.666892 98.145407,48.588057 C 97.957372,48.509227 85.397052,61.733012 70.233547,77.974242 L 42.663547,107.50376 L 42.663547,76.242577 z" id="path2614"/>
  <path style="opacity:1;fill:#ffff00;fill-opacity:1;stroke:#070404;stroke-width:0.34999999;stroke-linecap:round;stroke-linejoin:miter;stroke-miterlimit:4;stroke-dasharray:none;stroke-opacity:1" d="M 124.71073,134.85639 C 110.30261,118.83764 98.351047,105.66582 98.151692,105.58567 C 97.952322,105.50553 86.087717,118.02308 71.785872,133.40245 L 45.782507,161.36495 L 45.433172,157.36009 L 45.083807,153.3552 L 46.800142,151.5433 C 47.744117,150.54675 58.704032,138.93139 71.155507,125.73139 C 83.606972,112.53139 94.513097,100.98712 95.391317,100.07746 L 96.988072,98.423532 L 124.07581,127.47941 L 151.16355,156.53527 L 151.16355,160.25834 C 151.16355,162.30602 151.10589,163.98139 151.03542,163.98139 C 150.96496,163.98139 139.11883,150.87514 124.71072,134.85639 L 124.71073,134.85639 z" id="path2616"/>
  <path style="opacity:1;fill:#ffff00;fill-opacity:1;stroke:#070404;stroke-width:0.34999999;stroke-linecap:round;stroke-linejoin:miter;stroke-miterlimit:4;stroke-dasharray:none;stroke-opacity:1" d="M 124.70627,195.38886 C 110.29227,179.62725 98.343042,166.66707 98.152437,166.58845 C 97.961832,166.50983 88.627932,176.07233 77.410432,187.83845 C 66.192932,199.60457 56.856292,209.29543 56.662332,209.3737 C 56.468382,209.45198 55.609602,207.13482 54.753942,204.22448 L 53.198217,198.93296 L 74.055882,176.72233 L 94.913547,154.5117 L 98.576147,158.12154 C 100.59056,160.10696 113.25369,172.90422 126.71642,186.5599 L 151.19413,211.38841 L 151.05384,217.71735 L 150.91355,224.0463 L 124.70627,195.38886 z" id="path2618"/>
  <path style="opacity:1;fill:#ffff00;fill-opacity:1;stroke:#070404;stroke-width:0.34999999;stroke-linecap:round;stroke-linejoin:miter;stroke-miterlimit:4;stroke-dasharray:none;stroke-opacity:1" d="M 147.66355,310.55561 C 137.74528,305.44148 125.68101,297.96626 117.16355,291.65731 C 98.201302,277.61183 81.969512,260.09276 71.950487,242.85854 L 70.571047,240.4857 L 71.794222,239.03202 C 76.375727,233.58721 94.850652,214.03801 95.206757,214.2581 C 95.448072,214.40724 108.13979,228.12783 123.41055,244.7483 L 151.1756,274.96732 L 151.04456,293.59937 L 150.91355,312.23139 L 147.66355,310.55561 z" id="path2620"/>
  <path style="opacity:1;fill:#ffff00;fill-opacity:1;stroke:#070404;stroke-width:0.34999999;stroke-linecap:round;stroke-linejoin:miter;stroke-miterlimit:4;stroke-dasharray:none;stroke-opacity:1" d="M 152.66355,294.50868 C 152.66355,280.20907 152.80398,276.01323 153.28855,275.83556 C 153.78855,275.65224 153.78855,275.47389 153.28855,274.94389 C 152.79529,274.42104 152.66355,260.86473 152.66355,210.63139 L 152.66355,146.98139 L 170.41355,146.98139 L 188.16355,146.98139 L 188.16355,219.95738 L 188.16355,292.93336 L 186.03855,294.38578 C 179.08132,299.14102 168.27853,305.28906 158.11978,310.2748 L 152.66355,312.95261 L 152.66355,294.50868 z" id="path2622"/>
  <path style="opacity:1;fill:#ffff00;fill-opacity:1;stroke:#070404;stroke-width:0.34999999;stroke-linecap:round;stroke-linejoin:miter;stroke-miterlimit:4;stroke-dasharray:none;stroke-opacity:1" d="M 220.66355,78.231392 L 220.66355,44.981392 L 243.3364,44.981392 L 266.00925,44.981392 L 266.33435,51.356392 C 266.5132,54.862642 266.6604,69.677137 266.6615,84.277487 L 266.66355,110.82359 L 257.5834,111.15249 C 252.58931,111.33339 242.23931,111.48139 234.58339,111.48139 L 220.66355,111.48139 L 220.66355,78.231392 z" id="path2624"/>
  <path style="opacity:1;fill:#ffff00;fill-opacity:1;stroke:#070404;stroke-width:0.34999999;stroke-linecap:round;stroke-linejoin:miter;stroke-miterlimit:4;stroke-dasharray:none;stroke-opacity:1" d="M 152.66355,78.231392 L 152.66355,44.981392 L 170.85981,44.981392 L 189.05606,44.981392 L 189.35505,53.606392 C 189.51951,58.350142 189.7948,73.312642 189.96681,86.856392 L 190.27958,111.48139 L 171.47156,111.48139 L 152.66355,111.48139 L 152.66355,78.231392 z" id="path2626"/>
  <path style="opacity:1;fill:#ffff00;fill-opacity:1;stroke:#070404;stroke-width:0.34999999;stroke-linecap:round;stroke-linejoin:miter;stroke-miterlimit:4;stroke-dasharray:none;stroke-opacity:1" d="M 221.68488,205.35639 L 221.66355,146.98139 L 243.41355,146.98139 L 265.16355,146.98139 L 265.16355,148.68371 C 265.16355,153.95354 262.74045,171.59796 260.41915,183.23139 C 255.04605,210.15896 244.5998,234.29967 229.93966,253.66767 C 227.62343,256.72772 224.82336,260.24389 223.71726,261.48139 L 221.70618,263.73139 L 221.68488,205.35639 z" id="path2628"/>
  <path style="opacity:1;fill:#000000;fill-opacity:1;stroke:#070404;stroke-width:0.34999999;stroke-linecap:round;stroke-linejoin:miter;stroke-miterlimit:4;stroke-dasharray:none;stroke-opacity:1" d="M 141.66355,347.78397 C 82.545882,316.44842 44.969757,274.999 25.714652,219.88323 C 16.111927,192.39646 10.996347,164.19486 8.3493274,124.1504 C 7.6998024,114.32427 7.4818174,100.53539 7.3052574,58.106392 L 7.0821124,4.4813924 L 151.81229,4.4813924 L 296.54245,4.4813924 L 296.91835,44.356392 C 297.37405,92.696977 296.8654,116.93475 294.89585,140.73139 C 290.50725,193.75566 277.4974,234.55422 254.24685,268.20555 C 235.04212,296.00121 207.66921,320.00279 173.04062,339.41017 C 164.96724,343.93486 149.85633,351.49861 149.0441,351.42162 C 148.6973,351.38876 145.37605,349.75181 141.66355,347.78399 L 141.66355,347.78397 z M 157.02961,344.23005 C 159.66845,341.97129 161.37739,338.52806 160.96106,336.30882 C 160.79188,335.407 159.64178,333.12883 158.40529,331.24624 C 156.42252,328.22743 153.66355,321.22157 153.66355,319.20558 C 153.66355,318.04871 151.77755,316.48139 150.38543,316.48139 C 149.35981,316.48139 148.92505,316.90121 148.18472,318.60639 C 147.67729,319.77514 147.09961,321.96154 146.90097,323.46506 C 146.6183,325.60469 146.12489,326.69119 144.63034,328.46506 C 143.08077,330.3042 142.62154,331.35412 142.19399,334.03513 C 141.26455,339.86332 142.67199,343.61262 146.41355,345.27557 C 147.23855,345.64223 149.5043,345.95106 151.44855,345.96182 C 154.77897,345.98025 155.10196,345.88004 157.02959,344.23006 L 157.02961,344.23005 z M 168.67389,306.71885 C 225.92516,275.35638 255.7101,232.29196 264.6299,167.98139 C 267.449,147.65591 267.7817,140.1682 268.1121,89.606167 L 268.41355,43.480932 L 210.53855,43.481172 C 159.42734,43.481367 152.66355,43.393742 152.66355,42.731392 C 152.66355,42.318892 152.32605,41.981392 151.91355,41.981392 C 151.50105,41.981392 151.16355,42.318892 151.16355,42.731392 C 151.16355,43.393527 144.70549,43.481322 96.038547,43.480777 L 40.913547,43.480162 L 41.032962,48.855772 C 41.098652,51.812367 41.247207,71.218892 41.363087,91.981392 C 41.574682,129.89526 41.839017,137.17474 43.642127,154.74734 C 48.463047,201.73054 61.509562,235.95875 85.465582,264.47328 C 100.42874,282.28372 120.21539,297.68215 145.61072,311.27963 L 152.3079,314.86552 L 157.37107,312.50123 C 160.15581,311.20088 165.24208,308.59881 168.67389,306.71885 z M 93.931672,296.82652 C 96.004672,296.02362 97.247592,295.17602 98.009502,294.04566 C 99.324252,292.09512 100.35919,287.51041 99.927972,285.54707 C 99.567497,283.90588 97.172867,281.47664 94.670202,280.21333 C 92.102047,278.91696 88.875212,276.08414 86.566677,273.09928 C 84.488332,270.41206 83.040922,269.63554 81.199632,270.21994 C 80.324712,270.49762 80.163547,270.95741 80.163547,273.17602 C 80.163547,274.62101 80.526857,276.86951 80.970907,278.17272 C 81.713602,280.35244 81.713752,280.7721 80.972642,283.41341 C 80.259127,285.95641 80.248327,286.59595 80.878277,289.00801 C 83.002522,297.14167 86.974812,299.52092 93.931672,296.8265 L 93.931672,296.82652 z M 219.874,296.5214 C 223.54825,295.28401 224.25915,294.01095 224.70224,287.87515 C 224.95844,284.32741 225.54793,281.26126 226.60209,277.9934 C 228.00996,273.62903 228.07034,273.16362 227.36788,272.09152 C 226.94844,271.45138 226.30183,270.8112 225.93094,270.66888 C 225.01277,270.31653 221.61272,272.5316 219.85366,274.62808 C 218.18244,276.61984 217.13805,277.2189 214.50872,277.69383 C 212.23788,278.10401 209.36102,280.55692 207.19873,283.92656 C 205.38859,286.74743 205.24737,288.82554 206.67058,291.69853 C 207.59022,293.55502 211.14183,296.77899 213.10977,297.54374 C 214.16218,297.95272 216.81397,297.55192 219.874,296.52139 L 219.874,296.5214 z M 45.525422,228.23991 C 47.269047,227.53268 47.854737,226.92374 48.884032,224.74799 C 51.361732,219.51054 51.007082,216.44662 47.628847,213.90431 C 44.158047,211.29234 39.934217,207.0712 38.105872,204.3874 C 35.756052,200.93813 35.548012,200.79798 33.381102,201.20449 C 31.671067,201.5253 31.663547,201.53878 31.663547,204.28264 C 31.663547,205.79841 31.917402,208.04673 32.227677,209.27893 C 32.710867,211.1978 32.643032,211.97246 31.755027,214.67751 C 30.786722,217.62715 30.765842,218.03973 31.438772,220.92431 C 33.017662,227.69248 35.149017,229.68384 40.413547,229.30971 C 42.063547,229.19245 44.363897,228.71103 45.525437,228.2399 L 45.525422,228.23991 z M 267.91355,226.30335 C 274.1695,224.63631 275.1471,223.1502 275.0489,215.45636 C 274.9985,211.50894 275.25565,209.16626 276.10055,205.87519 C 277.286,201.25745 277.13145,200.03458 275.23415,199.01918 C 274.01385,198.36609 271.18025,200.39273 268.9254,203.53133 C 267.5013,205.51358 266.78945,206.01919 264.47575,206.6918 C 262.32465,207.31713 261.34495,207.95672 260.00275,209.61195 C 254.86495,215.94796 254.93795,220.44019 260.2421,224.35081 C 264.1608,227.23996 264.2825,227.27092 267.91355,226.30335 L 267.91355,226.30335 z M 31.529607,127.73006 C 34.168447,125.47129 35.877392,122.02806 35.461062,119.80882 C 35.291877,118.907 34.141782,116.62883 32.905292,114.74624 C 30.922517,111.72744 28.163547,104.72157 28.163547,102.70558 C 28.163547,101.5487 26.277547,99.981392 24.885432,99.981392 C 23.859812,99.981392 23.425047,100.40121 22.684722,102.10639 C 22.177287,103.27514 21.599607,105.46154 21.400972,106.96506 C 21.118297,109.1047 20.624892,110.19119 19.130337,111.96506 C 17.580767,113.80421 17.121542,114.85412 16.693987,117.53513 C 15.764552,123.36332 17.171992,127.11262 20.913547,128.77557 C 21.738547,129.14225 24.004297,129.45106 25.948547,129.46182 C 29.278967,129.48026 29.601957,129.38004 31.529592,127.73006 L 31.529607,127.73006 z M 286.11415,128.25694 C 287.9201,127.32305 290.5932,124.27187 291.4938,122.11642 C 292.40725,119.93021 291.94855,117.52487 290.1428,115.03207 C 287.97395,112.03806 286.2903,108.42903 285.18315,104.40071 C 284.1548,100.65902 282.8965,98.981392 281.1183,98.981392 C 279.81715,98.981392 278.25405,102.25606 277.85435,105.81939 C 277.6042,108.04916 277.15185,109.19996 275.92335,110.73139 C 275.0409,111.83139 274.03515,113.26749 273.6882,113.92272 C 272.7778,115.64206 272.7395,122.98153 273.6322,124.66241 C 274.67465,126.62532 277.51045,128.1861 280.66355,128.53237 C 282.17605,128.69847 283.70595,128.86745 284.0634,128.90788 C 284.4208,128.94832 285.34365,128.65539 286.11415,128.25693 L 286.11415,128.25694 z M 284.8121,37.856392 C 288.84555,33.817732 289.4805,30.427947 286.8749,26.844432 C 284.43675,23.491217 282.36765,18.881072 281.1679,14.128892 C 280.51795,11.554307 279.51235,10.480802 277.75285,10.483267 C 276.64485,10.484817 276.26015,10.858207 275.5254,12.645282 C 275.0369,13.833367 274.49625,15.996117 274.3239,17.451402 C 274.0758,19.546092 273.61425,20.555212 272.1087,22.294792 C 269.95845,24.779182 269.4362,26.652912 269.4469,31.844862 C 269.45375,35.156192 269.5781,35.589807 270.93395,37.030752 C 273.03885,39.267722 274.89935,39.939482 279.0517,39.961822 C 282.67535,39.981312 282.69835,39.972897 284.8121,37.856392 z M 93.029607,37.730057 C 95.668447,35.471292 97.377392,32.028062 96.961062,29.808822 C 96.791877,28.906992 95.641782,26.628832 94.405292,24.746242 C 92.422517,21.727442 89.663547,14.721572 89.663547,12.705582 C 89.663547,11.548702 87.777547,9.9813924 86.385432,9.9813924 C 85.359812,9.9813924 84.925047,10.401207 84.184722,12.106392 C 83.677287,13.275142 83.099607,15.461542 82.900972,16.965057 C 82.618297,19.104697 82.124892,20.191192 80.630337,21.965057 C 79.080767,23.804207 78.621542,24.854117 78.193987,27.535132 C 77.264552,33.363322 78.671992,37.112622 82.413547,38.775572 C 83.238547,39.142242 85.504297,39.451057 87.448547,39.461822 C 90.778967,39.480257 91.101957,39.380042 93.029592,37.730057 L 93.029607,37.730057 z M 31.029607,36.730057 C 33.668447,34.471292 35.377392,31.028062 34.961062,28.808822 C 34.791877,27.906992 33.641782,25.628832 32.405292,23.746242 C 30.422517,20.727442 27.663547,13.721572 27.663547,11.705582 C 27.663547,10.548702 25.777547,8.9813924 24.385432,8.9813924 C 23.359812,8.9813924 22.925047,9.4012074 22.184722,11.106392 C 21.677287,12.275142 21.099607,14.461542 20.900972,15.965057 C 20.618297,18.104697 20.124892,19.191192 18.630337,20.965057 C 17.080767,22.804207 16.621542,23.854117 16.193987,26.535132 C 15.264552,32.363322 16.671992,36.112622 20.413547,37.775572 C 21.238547,38.142242 23.504297,38.451057 25.448547,38.461822 C 28.778967,38.480257 29.101957,38.380042 31.029592,36.730057 L 31.029607,36.730057 z M 155.52961,36.730057 C 158.16845,34.471292 159.87739,31.028062 159.46106,28.808822 C 159.29188,27.906992 158.14178,25.628832 156.90529,23.746242 C 154.92252,20.727442 152.16355,13.721572 152.16355,11.705582 C 152.16355,10.548702 150.27755,8.9813924 148.88543,8.9813924 C 147.85981,8.9813924 147.42505,9.4012074 146.68472,11.106392 C 146.17729,12.275142 145.59961,14.461542 145.40097,15.965057 C 145.1183,18.104697 144.62489,19.191192 143.13034,20.965057 C 141.58077,22.804207 141.12154,23.854117 140.69399,26.535132 C 139.76455,32.363322 141.17199,36.112622 144.91355,37.775572 C 145.73855,38.142242 148.0043,38.451057 149.94855,38.461822 C 153.27897,38.480257 153.60196,38.380042 155.52959,36.730057 L 155.52961,36.730057 z M 219.70923,37.116217 C 221.9142,35.260867 224.16355,31.595932 224.16355,29.858672 C 224.16355,28.297192 223.14619,26.061542 221.37502,23.730837 C 219.89473,21.782897 218.35093,18.147867 217.13649,13.750707 C 216.12206,10.077677 215.24727,8.9813924 213.33082,8.9813924 C 211.81418,8.9813924 210.69959,11.194357 210.10633,15.383482 C 209.73852,17.980757 209.28673,19.088262 207.90931,20.769217 C 205.82794,23.309257 205.31013,24.563992 205.13021,27.503442 C 204.84126,32.224117 205.12347,33.857032 206.51376,35.509302 C 208.37736,37.724082 210.31109,38.438962 214.50018,38.461822 C 217.69223,38.479237 218.26531,38.331202 219.70924,37.116222 L 219.70923,37.116217 z" id="path2630"/>
  <path style="opacity:1;fill:#000000;fill-opacity:1;stroke:#070404;stroke-width:0.34999999;stroke-linecap:round;stroke-linejoin:miter;stroke-miterlimit:4;stroke-dasharray:none;stroke-opacity:1" d="M 282.66355,125.54867 C 282.66355,125.31067 283.41795,123.4872 284.34005,121.49651 C 285.5425,118.90044 286.108,118.11544 286.34005,118.72013 C 286.8571,120.06762 286.7304,120.89058 285.602,123.5137 C 284.8692,125.21702 284.2497,125.98139 283.602,125.98139 C 283.0858,125.98139 282.66355,125.78667 282.66355,125.54867 z" id="path2633"/>
  <path style="opacity:1;fill:#000000;fill-opacity:1;stroke:#070404;stroke-width:0.34999999;stroke-linecap:round;stroke-linejoin:miter;stroke-miterlimit:4;stroke-dasharray:none;stroke-opacity:1" d="M 263.67805,223.50092 C 263.2735,223.24509 263.08255,222.89571 263.25375,222.72452 C 264.1839,221.79439 269.8759,218.02709 270.06515,218.21634 C 270.49275,218.64392 268.3541,221.48414 266.66775,222.72831 C 264.7638,224.13299 264.7025,224.14883 263.67805,223.50092 z" id="path2635"/>
  <path style="opacity:1;fill:#000000;fill-opacity:1;stroke:#070404;stroke-width:0.34999999;stroke-linecap:round;stroke-linejoin:miter;stroke-miterlimit:4;stroke-dasharray:none;stroke-opacity:1" d="M 212.45621,294.05042 C 212.17303,293.59223 219.65112,288.8023 220.04099,289.19217 C 220.16733,289.3185 219.1323,290.56026 217.74093,291.95163 C 215.33068,294.36186 213.17726,295.2171 212.45622,294.05044 L 212.45621,294.05042 z" id="path2637"/>
  <path style="opacity:1;fill:#000000;fill-opacity:1;stroke:#070404;stroke-width:0.34999999;stroke-linecap:round;stroke-linejoin:miter;stroke-miterlimit:4;stroke-dasharray:none;stroke-opacity:1" d="M 93.185642,289.35639 L 93.207737,284.73139 L 94.180332,286.57276 C 95.167437,288.4416 95.614497,292.34723 94.962132,293.40278 C 94.765452,293.72102 94.280307,293.98139 93.884037,293.98139 C 93.307052,293.98139 93.167947,293.06021 93.185647,289.35639 L 93.185642,289.35639 z" id="path2639"/>
  <path style="opacity:1;fill:#000000;fill-opacity:1;stroke:#070404;stroke-width:0.34999999;stroke-linecap:round;stroke-linejoin:miter;stroke-miterlimit:4;stroke-dasharray:none;stroke-opacity:1" d="M 43.342622,224.10639 C 43.513077,223.07514 43.673232,220.99389 43.698517,219.48139 L 43.744512,216.73139 L 44.690922,218.73139 C 46.171332,221.85989 45.699262,225.98139 43.860502,225.98139 C 43.182167,225.98139 43.088662,225.64284 43.342622,224.10639 z" id="path2641"/>
  <path style="opacity:1;fill:#000000;fill-opacity:1;stroke:#070404;stroke-width:0.34999999;stroke-linecap:round;stroke-linejoin:miter;stroke-miterlimit:4;stroke-dasharray:none;stroke-opacity:1" d="M 26.161472,126.64306 C 26.157567,125.86181 29.414502,118.98248 29.788547,118.98194 C 29.994797,118.98163 30.163547,119.72122 30.163547,120.62545 C 30.163547,122.71578 28.186532,126.68096 27.038547,126.89305 C 26.557297,126.98196 26.162617,126.86947 26.161482,126.64305 L 26.161472,126.64306 z" id="path2643"/>
  <path style="opacity:1;fill:#000000;fill-opacity:1;stroke:#070404;stroke-width:0.34999999;stroke-linecap:round;stroke-linejoin:miter;stroke-miterlimit:4;stroke-dasharray:none;stroke-opacity:1" d="M 25.661472,35.643052 C 25.657567,34.861812 28.914502,27.982482 29.288547,27.981937 C 29.494797,27.981642 29.663547,28.721217 29.663547,29.625447 C 29.663547,31.715782 27.686532,35.680957 26.538547,35.893052 C 26.057297,35.981967 25.662617,35.869467 25.661482,35.643052 L 25.661472,35.643052 z" id="path2645"/>
  <path style="opacity:1;fill:#000000;fill-opacity:1;stroke:#070404;stroke-width:0.34999999;stroke-linecap:round;stroke-linejoin:miter;stroke-miterlimit:4;stroke-dasharray:none;stroke-opacity:1" d="M 87.661472,36.643052 C 87.657567,35.861812 90.914502,28.982482 91.288547,28.981937 C 91.494797,28.981642 91.663547,29.721217 91.663547,30.625447 C 91.663547,32.715782 89.686532,36.680957 88.538547,36.893052 C 88.057297,36.981967 87.662617,36.869467 87.661482,36.643052 L 87.661472,36.643052 z" id="path2647"/>
  <path style="opacity:1;fill:#000000;fill-opacity:1;stroke:#070404;stroke-width:0.34999999;stroke-linecap:round;stroke-linejoin:miter;stroke-miterlimit:4;stroke-dasharray:none;stroke-opacity:1" d="M 150.16147,35.643052 C 150.15757,34.861812 153.4145,27.982482 153.78855,27.981937 C 153.9948,27.981642 154.16355,28.721217 154.16355,29.625447 C 154.16355,31.715782 152.18653,35.680957 151.03855,35.893052 C 150.5573,35.981967 150.16262,35.869467 150.16148,35.643052 L 150.16147,35.643052 z" id="path2649"/>
  <path style="opacity:1;fill:#000000;fill-opacity:1;stroke:#070404;stroke-width:0.34999999;stroke-linecap:round;stroke-linejoin:miter;stroke-miterlimit:4;stroke-dasharray:none;stroke-opacity:1" d="M 214.66355,35.551802 C 214.66355,35.315537 215.50292,33.346787 216.52882,31.176807 C 218.21387,27.612647 218.41141,27.375467 218.57323,28.722352 C 218.7914,30.538267 217.84653,33.914732 216.78673,35.106392 C 215.97486,36.019272 214.66355,36.294367 214.66355,35.551807 L 214.66355,35.551802 z" id="path2651"/>
  <path style="opacity:1;fill:#000000;fill-opacity:1;stroke:#070404;stroke-width:0.34999999;stroke-linecap:round;stroke-linejoin:miter;stroke-miterlimit:4;stroke-dasharray:none;stroke-opacity:1" d="M 279.16355,37.046442 C 279.16355,36.807222 279.9183,34.951812 280.84075,32.923312 C 282.25225,29.819502 282.57325,29.409182 282.86665,30.333677 C 283.2787,31.632052 282.5137,34.768492 281.3976,36.356392 C 280.6238,37.457282 279.16355,37.908322 279.16355,37.046442 z" id="path2653"/>
  <path style="opacity:1;fill:#000000;fill-opacity:1;stroke:#070404;stroke-width:0.34999999;stroke-linecap:round;stroke-linejoin:miter;stroke-miterlimit:4;stroke-dasharray:none;stroke-opacity:1" d="M 151.74689,342.91938 C 154.02196,337.37507 154.99419,335.32849 155.35357,335.32717 C 156.02886,335.32468 155.41779,339.38862 154.42982,341.47062 C 153.85375,342.68463 153.20938,343.32554 152.56491,343.32554 C 152.02333,343.32554 151.65521,343.14276 151.74688,342.91938 L 151.74689,342.91938 z" id="path2655"/>
</svg>